<svg width="72" height="77" viewBox="0 0 72 77" fill="none" xmlns="http://www.w3.org/2000/svg">
<path d="M25.5846 -4.02899C25.2231 -4.6314 24.5721 -5 23.8696 -5H4.53433C2.97974 -5 2.01952 -3.30406 2.81934 -1.97101L24.4193 34.029C24.7808 34.6314 25.4318 35 26.1343 35H45.4696C47.0242 35 47.9844 33.3041 47.1846 31.971L25.5846 -4.02899Z" fill="#C52229"/>
<path fill-rule="evenodd" clip-rule="evenodd" d="M23.8704 -7H4.53514C1.42597 -7 -0.494484 -3.60811 1.10518 -0.942017L22.7052 35.058C23.4281 36.2628 24.7301 37 26.1351 37H45.4704C48.5796 37 50.5 33.6081 48.9004 30.942L27.3004 -5.05798C26.5775 -6.2628 25.2754 -7 23.8704 -7ZM23.8704 -5C24.5729 -5 25.2239 -4.6314 25.5854 -4.02899L47.1854 31.971C47.9852 33.3041 47.025 35 45.4704 35H26.1351C25.4326 35 24.7816 34.6314 24.4202 34.029L2.82016 -1.97101C2.02033 -3.30406 2.98056 -5 4.53514 -5H23.8704Z" fill="#9B0F15"/>
<path d="M46.4194 -4.02899C46.7808 -4.6314 47.4318 -5 48.1343 -5H67.4696C69.0242 -5 69.9844 -3.30406 69.1846 -1.97101L47.5846 34.029C47.2231 34.6314 46.5721 35 45.8696 35H26.5343C24.9797 35 24.0195 33.3041 24.8194 31.971L46.4194 -4.02899Z" fill="#F1333B"/>
<path fill-rule="evenodd" clip-rule="evenodd" d="M48.1335 -7H67.4688C70.5779 -7 72.4984 -3.60811 70.8987 -0.942017L49.2987 35.058C48.5758 36.2628 47.2738 37 45.8688 37H26.5335C23.4243 37 21.5039 33.6081 23.1035 30.942L44.7035 -5.05798C45.4264 -6.2628 46.7285 -7 48.1335 -7ZM48.1335 -5C47.431 -5 46.78 -4.6314 46.4185 -4.02899L24.8185 31.971C24.0187 33.3041 24.9789 35 26.5335 35H45.8688C46.5713 35 47.2223 34.6314 47.5837 34.029L69.1837 -1.97101C69.9836 -3.30406 69.0233 -5 67.4688 -5H48.1335Z" fill="#9B0F15"/>
<path fill-rule="evenodd" clip-rule="evenodd" d="M48.5021 -3.86462C48.9797 -3.5873 49.1421 -2.97531 48.8648 -2.4977L39.8648 13.0023C39.5875 13.4799 38.9755 13.6423 38.4979 13.365C38.0203 13.0876 37.8579 12.4756 38.1352 11.998L47.1352 -3.50197C47.4125 -3.97958 48.0245 -4.14195 48.5021 -3.86462Z" fill="#FE666D"/>
<path fill-rule="evenodd" clip-rule="evenodd" d="M4.49787 -3.86462C4.02026 -3.5873 3.85789 -2.97531 4.13521 -2.4977L13.1352 13.0023C13.4125 13.4799 14.0245 13.6423 14.5021 13.365C14.9797 13.0876 15.1421 12.4756 14.8648 11.998L5.86479 -3.50197C5.58747 -3.97958 4.97548 -4.14195 4.49787 -3.86462Z" fill="#DF3840"/>
<path d="M63 48C63 62.9117 50.9117 75 36 75C21.0883 75 9 62.9117 9 48C9 33.0883 21.0883 21 36 21C50.9117 21 63 33.0883 63 48Z" fill="#DCA16A"/>
<path fill-rule="evenodd" clip-rule="evenodd" d="M65 48C65 64.0163 52.0163 77 36 77C19.9837 77 7 64.0163 7 48C7 31.9837 19.9837 19 36 19C52.0163 19 65 31.9837 65 48ZM36 75C50.9117 75 63 62.9117 63 48C63 33.0883 50.9117 21 36 21C21.0883 21 9 33.0883 9 48C9 62.9117 21.0883 75 36 75Z" fill="#C38144"/>
<path fill-rule="evenodd" clip-rule="evenodd" d="M11 49C10.4477 49 10 48.5523 10 48C10 33.6406 21.6406 22 36 22C36.5523 22 37 22.4477 37 23C37 23.5523 36.5523 24 36 24C22.7452 24 12 34.7452 12 48C12 48.5523 11.5523 49 11 49Z" fill="#F0B57F"/>
<path fill-rule="evenodd" clip-rule="evenodd" d="M61 47C61.5523 47 62 47.4477 62 48C62 62.3594 50.3594 74 36 74C35.4477 74 35 73.5523 35 73C35 72.4477 35.4477 72 36 72C49.2548 72 60 61.2548 60 48C60 47.4477 60.4477 47 61 47Z" fill="#CF945D"/>
<path d="M56 48C56 59.0457 47.0457 68 36 68C24.9543 68 16 59.0457 16 48C16 36.9543 24.9543 28 36 28C47.0457 28 56 36.9543 56 48Z" fill="#F7BA82"/>
<path fill-rule="evenodd" clip-rule="evenodd" d="M58 48C58 60.1503 48.1503 70 36 70C23.8497 70 14 60.1503 14 48C14 35.8497 23.8497 26 36 26C48.1503 26 58 35.8497 58 48ZM36 68C47.0457 68 56 59.0457 56 48C56 36.9543 47.0457 28 36 28C24.9543 28 16 36.9543 16 48C16 59.0457 24.9543 68 36 68Z" fill="#C38144"/>
<path fill-rule="evenodd" clip-rule="evenodd" d="M36 65C45.3888 65 53 57.3888 53 48C53 47.4477 53.4477 47 54 47C54.5523 47 55 47.4477 55 48C55 58.4934 46.4934 67 36 67C35.4477 67 35 66.5523 35 66C35 65.4477 35.4477 65 36 65Z" fill="#E6A66C"/>
<path fill-rule="evenodd" clip-rule="evenodd" d="M36 31C26.6112 31 19 38.6112 19 48C19 48.5523 18.5523 49 18 49C17.4477 49 17 48.5523 17 48C17 37.5066 25.5066 29 36 29C36.5523 29 37 29.4477 37 30C37 30.5523 36.5523 31 36 31Z" fill="#FFD5AE"/>
<mask id="path-15-outside-1_98_17765" maskUnits="userSpaceOnUse" x="27" y="36" width="17" height="23" fill="black">
<rect fill="white" x="27" y="36" width="17" height="23"/>
<path d="M33.6055 45.9688H35.4102C36.2695 45.9688 36.9062 45.7539 37.3203 45.3242C37.7344 44.8945 37.9414 44.3242 37.9414 43.6133C37.9414 42.9258 37.7344 42.3906 37.3203 42.0078C36.9141 41.625 36.3516 41.4336 35.6328 41.4336C34.9844 41.4336 34.4414 41.6133 34.0039 41.9727C33.5664 42.3242 33.3477 42.7852 33.3477 43.3555H29.9609C29.9609 42.4648 30.1992 41.668 30.6758 40.9648C31.1602 40.2539 31.832 39.6992 32.6914 39.3008C33.5586 38.9023 34.5117 38.7031 35.5508 38.7031C37.3555 38.7031 38.7695 39.1367 39.793 40.0039C40.8164 40.8633 41.3281 42.0508 41.3281 43.5664C41.3281 44.3477 41.0898 45.0664 40.6133 45.7227C40.1367 46.3789 39.5117 46.8828 38.7383 47.2344C39.6992 47.5781 40.4141 48.0938 40.8828 48.7812C41.3594 49.4688 41.5977 50.2812 41.5977 51.2188C41.5977 52.7344 41.043 53.9492 39.9336 54.8633C38.832 55.7773 37.3711 56.2344 35.5508 56.2344C33.8477 56.2344 32.4531 55.7852 31.3672 54.8867C30.2891 53.9883 29.75 52.8008 29.75 51.3242H33.1367C33.1367 51.9648 33.375 52.4883 33.8516 52.8945C34.3359 53.3008 34.9297 53.5039 35.6328 53.5039C36.4375 53.5039 37.0664 53.293 37.5195 52.8711C37.9805 52.4414 38.2109 51.875 38.2109 51.1719C38.2109 49.4688 37.2734 48.6172 35.3984 48.6172H33.6055V45.9688Z"/>
</mask>
<path d="M33.6055 45.9688H35.4102C36.2695 45.9688 36.9062 45.7539 37.3203 45.3242C37.7344 44.8945 37.9414 44.3242 37.9414 43.6133C37.9414 42.9258 37.7344 42.3906 37.3203 42.0078C36.9141 41.625 36.3516 41.4336 35.6328 41.4336C34.9844 41.4336 34.4414 41.6133 34.0039 41.9727C33.5664 42.3242 33.3477 42.7852 33.3477 43.3555H29.9609C29.9609 42.4648 30.1992 41.668 30.6758 40.9648C31.1602 40.2539 31.832 39.6992 32.6914 39.3008C33.5586 38.9023 34.5117 38.7031 35.5508 38.7031C37.3555 38.7031 38.7695 39.1367 39.793 40.0039C40.8164 40.8633 41.3281 42.0508 41.3281 43.5664C41.3281 44.3477 41.0898 45.0664 40.6133 45.7227C40.1367 46.3789 39.5117 46.8828 38.7383 47.2344C39.6992 47.5781 40.4141 48.0938 40.8828 48.7812C41.3594 49.4688 41.5977 50.2812 41.5977 51.2188C41.5977 52.7344 41.043 53.9492 39.9336 54.8633C38.832 55.7773 37.3711 56.2344 35.5508 56.2344C33.8477 56.2344 32.4531 55.7852 31.3672 54.8867C30.2891 53.9883 29.75 52.8008 29.75 51.3242H33.1367C33.1367 51.9648 33.375 52.4883 33.8516 52.8945C34.3359 53.3008 34.9297 53.5039 35.6328 53.5039C36.4375 53.5039 37.0664 53.293 37.5195 52.8711C37.9805 52.4414 38.2109 51.875 38.2109 51.1719C38.2109 49.4688 37.2734 48.6172 35.3984 48.6172H33.6055V45.9688Z" fill="#FFD5AE"/>
<path d="M33.6055 45.9688V43.9688C32.5009 43.9688 31.6055 44.8642 31.6055 45.9688H33.6055ZM37.3203 42.0078L35.9487 43.4634C35.9533 43.4677 35.958 43.4721 35.9626 43.4764L37.3203 42.0078ZM34.0039 41.9727L35.2567 43.5317C35.2623 43.5272 35.2678 43.5227 35.2734 43.5181L34.0039 41.9727ZM33.3477 43.3555V45.3555C34.4522 45.3555 35.3477 44.46 35.3477 43.3555H33.3477ZM29.9609 43.3555H27.9609C27.9609 44.46 28.8564 45.3555 29.9609 45.3555V43.3555ZM30.6758 40.9648L29.0229 39.8387L29.0202 39.8427L30.6758 40.9648ZM32.6914 39.3008L31.8564 37.4834L31.8502 37.4863L32.6914 39.3008ZM39.793 40.0039L38.5 41.5298L38.5069 41.5355L39.793 40.0039ZM38.7383 47.2344L37.9107 45.4136C37.1692 45.7507 36.7062 46.5037 36.74 47.3174C36.7738 48.1312 37.2978 48.8432 38.0646 49.1175L38.7383 47.2344ZM40.8828 48.7812L39.2304 49.9079C39.2333 49.9122 39.2362 49.9164 39.2391 49.9206L40.8828 48.7812ZM39.9336 54.8633L38.6618 53.3197L38.6564 53.3242L39.9336 54.8633ZM31.3672 54.8867L30.0868 56.4232L30.0923 56.4277L31.3672 54.8867ZM29.75 51.3242V49.3242C28.6454 49.3242 27.75 50.2196 27.75 51.3242H29.75ZM33.1367 51.3242H35.1367C35.1367 50.2196 34.2413 49.3242 33.1367 49.3242V51.3242ZM33.8516 52.8945L32.5541 54.4166C32.5582 54.42 32.5622 54.4235 32.5663 54.4269L33.8516 52.8945ZM37.5195 52.8711L38.8824 54.3349L38.8833 54.334L37.5195 52.8711ZM33.6055 48.6172H31.6055C31.6055 49.7218 32.5009 50.6172 33.6055 50.6172V48.6172ZM33.6055 47.9688H35.4102V43.9688H33.6055V47.9688ZM35.4102 47.9688C36.5713 47.9688 37.8295 47.6781 38.7605 46.712L35.8802 43.9364C35.9223 43.8927 35.9462 43.8946 35.8928 43.9126C35.8287 43.9342 35.68 43.9688 35.4102 43.9688V47.9688ZM38.7605 46.712C39.6009 45.8399 39.9414 44.7362 39.9414 43.6133H35.9414C35.9414 43.7752 35.9179 43.8594 35.9062 43.8918C35.8966 43.9181 35.8895 43.9268 35.8802 43.9364L38.7605 46.712ZM39.9414 43.6133C39.9414 42.4999 39.5892 41.3817 38.678 40.5393L35.9626 43.4764C35.9555 43.4698 35.9454 43.4587 35.9356 43.4442C35.9259 43.4299 35.9215 43.4196 35.9208 43.4179C35.9196 43.4147 35.9414 43.4686 35.9414 43.6133H39.9414ZM38.6919 40.5522C37.817 39.7278 36.7095 39.4336 35.6328 39.4336V43.4336C35.8175 43.4336 35.914 43.4584 35.9495 43.4705C35.9775 43.4801 35.9672 43.4808 35.9487 43.4634L38.6919 40.5522ZM35.6328 39.4336C34.5923 39.4336 33.581 39.7318 32.7344 40.4272L35.2734 43.5181C35.3018 43.4947 35.3764 43.4336 35.6328 43.4336V39.4336ZM32.7511 40.4136C31.8324 41.1519 31.3477 42.1905 31.3477 43.3555H35.3477C35.3477 43.3411 35.349 43.3451 35.3451 43.3633C35.3411 43.3821 35.3331 43.409 35.3186 43.4395C35.3041 43.4701 35.2874 43.4953 35.2727 43.5135C35.2584 43.5312 35.2506 43.5366 35.2567 43.5317L32.7511 40.4136ZM33.3477 41.3555H29.9609V45.3555H33.3477V41.3555ZM31.9609 43.3555C31.9609 42.8444 32.0905 42.4423 32.3313 42.0869L29.0202 39.8427C28.308 40.8936 27.9609 42.0853 27.9609 43.3555H31.9609ZM32.3286 42.091C32.5894 41.7082 32.9669 41.3776 33.5327 41.1152L31.8502 37.4863C30.6972 38.0209 29.7309 38.7996 29.0229 39.8387L32.3286 42.091ZM33.5264 41.1181C34.1091 40.8504 34.774 40.7031 35.5508 40.7031V36.7031C34.2494 36.7031 33.0081 36.9543 31.8564 37.4834L33.5264 41.1181ZM35.5508 40.7031C37.0464 40.7031 37.9461 41.0604 38.5 41.5298L41.0859 38.478C39.593 37.213 37.6646 36.7031 35.5508 36.7031V40.7031ZM38.5069 41.5355C39.0138 41.9613 39.3281 42.5529 39.3281 43.5664H43.3281C43.3281 41.5487 42.619 39.7653 41.0791 38.4723L38.5069 41.5355ZM39.3281 43.5664C39.3281 43.9086 39.2336 44.2189 38.995 44.5475L42.2316 46.8979C42.9461 45.9139 43.3281 44.7867 43.3281 43.5664H39.3281ZM38.995 44.5475C38.7315 44.9102 38.3847 45.1982 37.9107 45.4136L39.5659 49.0551C40.6387 48.5675 41.5419 47.8476 42.2316 46.8979L38.995 44.5475ZM38.0646 49.1175C38.7193 49.3517 39.0493 49.6424 39.2304 49.9079L42.5353 47.6546C41.7788 46.5451 40.6791 45.8045 39.4119 45.3512L38.0646 49.1175ZM39.2391 49.9206C39.4562 50.2338 39.5977 50.6373 39.5977 51.2188H43.5977C43.5977 49.9252 43.2626 48.7037 42.5265 47.6419L39.2391 49.9206ZM39.5977 51.2188C39.5977 52.1742 39.282 52.8087 38.6618 53.3197L41.2054 56.4068C42.8039 55.0897 43.5977 53.2945 43.5977 51.2188H39.5977ZM38.6564 53.3242C38.0023 53.867 37.0342 54.2344 35.5508 54.2344V58.2344C37.708 58.2344 39.6618 57.6877 41.2107 56.4024L38.6564 53.3242ZM35.5508 54.2344C34.2123 54.2344 33.2988 53.889 32.6421 53.3457L30.0923 56.4277C31.6075 57.6813 33.483 58.2344 35.5508 58.2344V54.2344ZM32.6476 53.3503C32.052 52.854 31.75 52.2427 31.75 51.3242H27.75C27.75 53.3589 28.5261 55.1226 30.0868 56.4232L32.6476 53.3503ZM29.75 53.3242H33.1367V49.3242H29.75V53.3242ZM31.1367 51.3242C31.1367 52.5351 31.6201 53.6204 32.5541 54.4166L35.149 51.3725C35.1291 51.3555 35.123 51.347 35.1243 51.3488C35.126 51.351 35.1309 51.3581 35.1357 51.3686C35.1404 51.3791 35.1414 51.3847 35.1408 51.3816C35.14 51.3779 35.1367 51.3601 35.1367 51.3242H31.1367ZM32.5663 54.4269C33.4518 55.1695 34.5159 55.5039 35.6328 55.5039V51.5039C35.3434 51.5039 35.2201 51.432 35.1368 51.3621L32.5663 54.4269ZM35.6328 55.5039C36.7869 55.5039 37.9587 55.1949 38.8824 54.3349L36.1567 51.4073C36.1535 51.4103 36.1358 51.4281 36.072 51.4495C36.0009 51.4734 35.8634 51.5039 35.6328 51.5039V55.5039ZM38.8833 54.334C39.7993 53.4802 40.2109 52.3587 40.2109 51.1719H36.2109C36.2109 51.3034 36.1899 51.3595 36.1856 51.3702C36.1829 51.3768 36.1809 51.3801 36.179 51.3828C36.1771 51.3856 36.1708 51.3941 36.1558 51.4082L38.8833 54.334ZM40.2109 51.1719C40.2109 49.9598 39.8685 48.6982 38.8525 47.7754C37.8731 46.8857 36.5992 46.6172 35.3984 46.6172V50.6172C36.0727 50.6172 36.2051 50.7744 36.1631 50.7363C36.141 50.7163 36.1431 50.7037 36.1576 50.7432C36.1763 50.7942 36.2109 50.9244 36.2109 51.1719H40.2109ZM35.3984 46.6172H33.6055V50.6172H35.3984V46.6172ZM35.6055 48.6172V45.9688H31.6055V48.6172H35.6055Z" fill="#C28044" mask="url(#path-15-outside-1_98_17765)"/>
</svg>
