<svg width="240" height="240" viewBox="0 0 240 240" fill="none" xmlns="http://www.w3.org/2000/svg">
<path d="M13.9506 231.134C18.2068 235.746 35.7381 227.703 49.5756 221.253C59.9443 216.434 101.438 199.409 122.063 190.578C127.632 188.196 135.732 185.084 141.563 177.415C146.738 170.59 160.463 141.603 132.826 112.24C104.776 82.4277 75.8818 90.659 65.0818 98.309C58.7256 102.809 53.5506 112.953 51.2256 118.109C41.4006 139.896 27.3943 179.815 21.6943 195.509C17.5131 207.078 9.73183 226.559 13.9506 231.134Z" fill="#FFC107"/>
<path d="M48.4703 124.668C48.7328 127.93 49.3891 133.237 51.6391 143.455C53.1766 150.468 55.6891 157.818 57.7328 162.674C63.8641 177.28 72.4703 183.168 81.1891 187.893C96.0016 195.918 106.07 197.418 106.07 197.418L93.9953 202.349C93.9953 202.349 86.6828 200.83 76.7078 195.918C67.2016 191.23 57.3016 183.299 50.0641 167.774C46.9328 161.043 45.1141 154.518 44.0641 149.343C42.7703 142.93 42.5641 139.293 42.5641 139.293L48.4703 124.668ZM33.6391 162.693C33.6391 162.693 35.1391 174.862 45.1891 190.218C56.9641 208.18 73.4078 211.124 73.4078 211.124L62.4766 215.624C62.4766 215.624 50.2703 211.893 38.6641 196.049C31.4266 186.168 29.4016 174.355 29.4016 174.355L33.6391 162.693ZM23.2328 191.53C23.2328 191.53 25.9703 202.03 31.9703 209.868C39.1141 219.224 48.2078 221.943 48.2078 221.943L39.8266 225.655C39.8266 225.655 33.4703 224.324 26.5141 215.512C21.2266 208.818 19.7266 201.13 19.7266 201.13L23.2328 191.53Z" fill="#CD7300"/>
<path d="M78.0819 155.982C100.394 182.082 125.801 178.82 134.257 172.22C142.732 165.601 149.426 142.857 127.207 117.188C103.919 90.3008 77.5569 97.9696 71.4632 103.782C65.3694 109.595 57.6069 132.038 78.0819 155.982Z" fill="url(#paint0_linear_326_6176)"/>
<path d="M154.72 166.726C146.583 159.901 142.252 161.12 136.439 163.538C128.939 166.651 117.145 168.957 101.133 163.538L105.952 151.932C115.458 155.138 122.339 153.582 128.283 150.076C135.933 145.576 146.395 139.407 162.67 153.076C169.458 158.776 176.414 162.563 181.514 160.838C185.227 159.601 187.195 154.07 188.189 149.663C188.283 149.27 188.433 148.145 188.545 147.151C189.445 140.27 190.945 125.42 202.008 117.826C213.839 109.707 226.27 109.707 226.27 109.707L228.52 132.057C222.802 131.213 218.827 132.376 215.47 134.232C202.833 141.263 213.839 168.263 194.17 177.338C175.252 186.132 159.783 170.963 154.72 166.726Z" fill="#03A9F4"/>
<path d="M85.1249 138.225L76.9874 130.931C91.9311 114.244 87.9936 101.981 85.1249 93.0563C84.5436 91.2562 83.9999 89.55 83.6436 87.9187C82.3686 82.1437 82.1061 77.1188 82.4999 72.7313C76.7624 65.5875 74.2311 58.1062 74.0624 57.6C70.5749 47.0437 73.1999 36.75 79.2186 27.0938C91.3874 7.5 113.419 7.5 113.419 7.5L120.769 27.1687C115.181 26.9438 96.8624 27.225 91.2374 36.0938C84.1311 47.2687 88.7999 54.1688 89.1374 54.9562C90.5061 53.175 91.8936 51.75 93.1311 50.6437C102.112 42.675 109.912 41.5312 114.881 41.9812C120.469 42.4875 125.531 45.3 129.15 49.9125C133.106 54.975 134.737 61.5563 133.481 67.5375C132.262 73.3688 128.381 78.3 122.55 81.4313C112.369 86.9062 103.894 86.1562 98.2124 84.2625C98.2499 84.3937 98.2686 84.5437 98.3061 84.675C98.5124 85.6125 98.9249 86.925 99.4124 88.4437C102.731 98.7188 108.9 115.031 85.1249 138.225ZM98.9061 67.8562C99.9936 68.6437 101.137 69.3 102.319 69.7687C106.256 71.3438 110.55 70.8187 115.425 68.1937C118.294 66.6562 118.631 65.0063 118.744 64.4625C119.081 62.8313 118.519 60.75 117.3 59.1937C116.231 57.825 114.994 57.1125 113.512 56.9625C110.7 56.7188 106.894 58.5 103.087 61.8937C101.269 63.525 99.8811 65.5312 98.9061 67.8562Z" fill="#F44336"/>
<path d="M117.698 141.28L106.055 140.961C106.055 140.961 111.586 109.724 129.492 104.474C132.848 103.499 136.523 102.505 140.217 101.961C142.411 101.624 145.88 101.118 147.586 100.48C147.98 97.5363 146.742 93.7863 145.355 89.5301C144.267 86.2301 143.142 82.8363 142.542 79.1238C141.38 71.8863 143.311 65.4926 147.98 61.0863C153.68 55.7426 162.886 54.0363 173.273 56.3988C179.198 57.7488 183.567 60.6551 187.411 63.2051C192.905 66.8613 196.111 68.7176 202.823 64.1988C210.942 58.7238 200.33 37.2926 194.686 24.9176L215.742 16.1426C218.573 22.3301 232.242 54.1676 223.223 72.3363C220.186 78.4488 214.955 82.4988 208.092 84.0176C193.167 87.3551 184.43 81.5426 178.055 77.3051C175.036 75.2988 172.392 73.7238 169.523 72.8988C149.592 67.2176 177.417 96.5426 164.386 109.724C156.567 117.618 137.461 119.699 136.223 119.999C123.923 122.961 117.698 141.28 117.698 141.28Z" fill="#F48FB1"/>
<path d="M82.4986 72.7344C82.1424 76.8594 81.9736 79.3156 83.0424 84.6781C88.1986 88.4656 99.4299 88.4656 99.4299 88.4656C98.9424 86.9469 98.5111 85.6344 98.3236 84.6969C98.2861 84.5656 98.2674 84.4156 98.2299 84.2844C86.8111 78.5844 82.4986 72.7344 82.4986 72.7344Z" fill="#C92B27"/>
<path d="M59.1141 91.2004L39.7266 81.6941L49.3828 67.7441L64.5891 77.8129L59.1141 91.2004Z" fill="#FFC107"/>
<path d="M30.5469 64.8797C20.6469 63.5484 10.5594 55.1484 9.45312 54.1922L19.1844 42.7734C22.1281 45.2672 28.3719 49.4484 32.5531 50.0109L30.5469 64.8797Z" fill="#FB8C00"/>
<path d="M48 39.8781L33.75 35.2094C35.3813 30.2219 35.8125 24.8406 34.9687 19.6469L49.7812 17.2656C51 24.8031 50.3813 32.6219 48 39.8781Z" fill="#03A9F4"/>
<path d="M137.031 28.7336L151.684 25.5273L155.916 44.8698L141.263 48.0761L137.031 28.7336Z" fill="#FB8C00"/>
<path d="M173.359 33.3184L163.047 22.4246C168.447 17.3059 169.684 10.6121 169.684 10.5371L184.497 12.9559C184.309 14.1371 182.416 24.7496 173.359 33.3184Z" fill="#FFC107"/>
<path d="M179.102 91.0872L192.202 86.9922L196.676 101.31L183.575 105.405L179.102 91.0872Z" fill="#FB8C00"/>
<path d="M182.906 211.929L168 210.166C168.637 204.86 164.681 198.354 163.594 196.91L175.594 187.91C176.494 189.091 184.313 199.91 182.906 211.929Z" fill="#F44336"/>
<path d="M225.677 192.923C220.07 192.079 214.333 191.742 208.67 191.948L208.164 176.948C214.745 176.723 221.402 177.098 227.908 178.092L225.677 192.923Z" fill="#FB8C00"/>
<path d="M205.508 213.565L216.045 202.891L230.548 217.212L220.011 227.884L205.508 213.565Z" fill="#F48FB1"/>
<path d="M174.579 118.75L185.417 131.142L173.025 141.979L162.188 129.587L174.579 118.75Z" fill="#F44336"/>
<defs>
<linearGradient id="paint0_linear_326_6176" x1="139.458" y1="115.949" x2="83.645" y2="149.436" gradientUnits="userSpaceOnUse">
<stop offset="0.024" stop-color="#8F4700"/>
<stop offset="1" stop-color="#703E2D"/>
</linearGradient>
</defs>
</svg>
