<svg width="56" height="56" viewBox="0 0 56 56" fill="none" xmlns="http://www.w3.org/2000/svg">
<rect width="56" height="56" rx="20" fill="#EBFFED"/>
<path fill-rule="evenodd" clip-rule="evenodd" d="M12 28C12 19.1634 19.1634 12 28 12C36.8366 12 44 19.1634 44 28C44 36.8366 36.8366 44 28 44C19.1634 44 12 36.8366 12 28ZM33.9246 25.0231C34.3197 24.4699 34.1916 23.7013 33.6384 23.3062C33.0853 22.9111 32.3166 23.0392 31.9216 23.5923L26.6122 31.0255L23.9472 28.3605C23.4666 27.8798 22.6873 27.8798 22.2066 28.3605C21.726 28.8411 21.726 29.6204 22.2066 30.1011L25.8989 33.7934C26.1548 34.0492 26.5102 34.1795 26.8707 34.1497C27.2313 34.1198 27.5605 33.9328 27.7708 33.6384L33.9246 25.0231Z" fill="#93FF9D"/>
</svg>
