<svg width="72" height="77" viewBox="0 0 72 77" fill="none" xmlns="http://www.w3.org/2000/svg">
<path d="M25.5846 -4.02899C25.2231 -4.6314 24.5721 -5 23.8696 -5H4.53433C2.97974 -5 2.01952 -3.30406 2.81934 -1.97101L24.4193 34.029C24.7808 34.6314 25.4318 35 26.1343 35H45.4696C47.0242 35 47.9844 33.3041 47.1846 31.971L25.5846 -4.02899Z" fill="#C52229"/>
<path fill-rule="evenodd" clip-rule="evenodd" d="M23.8704 -7H4.53514C1.42597 -7 -0.494484 -3.60811 1.10518 -0.942017L22.7052 35.058C23.4281 36.2628 24.7301 37 26.1351 37H45.4704C48.5796 37 50.5 33.6081 48.9004 30.942L27.3004 -5.05798C26.5775 -6.2628 25.2754 -7 23.8704 -7ZM23.8704 -5C24.5729 -5 25.2239 -4.6314 25.5854 -4.02899L47.1854 31.971C47.9852 33.3041 47.025 35 45.4704 35H26.1351C25.4326 35 24.7816 34.6314 24.4202 34.029L2.82016 -1.97101C2.02033 -3.30406 2.98056 -5 4.53514 -5H23.8704Z" fill="#9B0F15"/>
<path d="M46.4194 -4.02899C46.7808 -4.6314 47.4318 -5 48.1343 -5H67.4696C69.0242 -5 69.9844 -3.30406 69.1846 -1.97101L47.5846 34.029C47.2231 34.6314 46.5721 35 45.8696 35H26.5343C24.9797 35 24.0195 33.3041 24.8194 31.971L46.4194 -4.02899Z" fill="#F1333B"/>
<path fill-rule="evenodd" clip-rule="evenodd" d="M48.1335 -7H67.4688C70.5779 -7 72.4984 -3.60811 70.8987 -0.942017L49.2987 35.058C48.5758 36.2628 47.2738 37 45.8688 37H26.5335C23.4243 37 21.5039 33.6081 23.1035 30.942L44.7035 -5.05798C45.4264 -6.2628 46.7285 -7 48.1335 -7ZM48.1335 -5C47.431 -5 46.78 -4.6314 46.4185 -4.02899L24.8185 31.971C24.0187 33.3041 24.9789 35 26.5335 35H45.8688C46.5713 35 47.2223 34.6314 47.5837 34.029L69.1837 -1.97101C69.9836 -3.30406 69.0233 -5 67.4688 -5H48.1335Z" fill="#9B0F15"/>
<path fill-rule="evenodd" clip-rule="evenodd" d="M48.5021 -3.86462C48.9797 -3.5873 49.1421 -2.97531 48.8648 -2.4977L39.8648 13.0023C39.5874 13.4799 38.9755 13.6423 38.4978 13.365C38.0202 13.0876 37.8579 12.4756 38.1352 11.998L47.1352 -3.50197C47.4125 -3.97958 48.0245 -4.14195 48.5021 -3.86462Z" fill="#FE666D"/>
<path fill-rule="evenodd" clip-rule="evenodd" d="M4.49788 -3.86462C4.02027 -3.5873 3.85791 -2.97531 4.13523 -2.4977L13.1352 13.0023C13.4126 13.4799 14.0245 13.6423 14.5022 13.365C14.9798 13.0876 15.1421 12.4756 14.8648 11.998L5.86481 -3.50197C5.58749 -3.97958 4.97549 -4.14195 4.49788 -3.86462Z" fill="#DF3840"/>
<path d="M63 48C63 62.9117 50.9117 75 36 75C21.0883 75 9 62.9117 9 48C9 33.0883 21.0883 21 36 21C50.9117 21 63 33.0883 63 48Z" fill="#FFBB0D"/>
<path fill-rule="evenodd" clip-rule="evenodd" d="M65 48C65 64.0163 52.0163 77 36 77C19.9837 77 7 64.0163 7 48C7 31.9837 19.9837 19 36 19C52.0163 19 65 31.9837 65 48ZM36 75C50.9117 75 63 62.9117 63 48C63 33.0883 50.9117 21 36 21C21.0883 21 9 33.0883 9 48C9 62.9117 21.0883 75 36 75Z" fill="#E89B05"/>
<path fill-rule="evenodd" clip-rule="evenodd" d="M11 49C10.4477 49 10 48.5523 10 48C10 33.6406 21.6406 22 36 22C36.5523 22 37 22.4477 37 23C37 23.5523 36.5523 24 36 24C22.7452 24 12 34.7452 12 48C12 48.5523 11.5523 49 11 49Z" fill="#E8AA0A"/>
<path fill-rule="evenodd" clip-rule="evenodd" d="M61 47C61.5523 47 62 47.4477 62 48C62 62.3594 50.3594 74 36 74C35.4477 74 35 73.5523 35 73C35 72.4477 35.4477 72 36 72C49.2548 72 60 61.2548 60 48C60 47.4477 60.4477 47 61 47Z" fill="#E8AA0A"/>
<path d="M56 48C56 59.0457 47.0457 68 36 68C24.9543 68 16 59.0457 16 48C16 36.9543 24.9543 28 36 28C47.0457 28 56 36.9543 56 48Z" fill="#FFDD28"/>
<path fill-rule="evenodd" clip-rule="evenodd" d="M58 48C58 60.1503 48.1503 70 36 70C23.8497 70 14 60.1503 14 48C14 35.8497 23.8497 26 36 26C48.1503 26 58 35.8497 58 48ZM36 68C47.0457 68 56 59.0457 56 48C56 36.9543 47.0457 28 36 28C24.9543 28 16 36.9543 16 48C16 59.0457 24.9543 68 36 68Z" fill="#E89B05"/>
<path fill-rule="evenodd" clip-rule="evenodd" d="M36 65C45.3888 65 53 57.3888 53 48C53 47.4477 53.4477 47 54 47C54.5523 47 55 47.4477 55 48C55 58.4934 46.4934 67 36 67C35.4477 67 35 66.5523 35 66C35 65.4477 35.4477 65 36 65Z" fill="#ECC704"/>
<path fill-rule="evenodd" clip-rule="evenodd" d="M36 31C26.6112 31 19 38.6112 19 48C19 48.5523 18.5523 49 18 49C17.4477 49 17 48.5523 17 48C17 37.5066 25.5066 29 36 29C36.5523 29 37 29.4477 37 30C37 30.5523 36.5523 31 36 31Z" fill="#FFEF9C"/>
<path d="M38.3867 56H35V42.9453L30.957 44.1992V41.4453L38.0234 38.9141H38.3867V56Z" fill="#FFEF9C"/>
<path fill-rule="evenodd" clip-rule="evenodd" d="M40.3867 56C40.3867 57.1046 39.4913 58 38.3867 58H35C33.8954 58 33 57.1046 33 56V45.6596L31.5495 46.1095C30.9425 46.2977 30.2822 46.1863 29.7706 45.8093C29.259 45.4324 28.957 44.8347 28.957 44.1992V41.4453C28.957 40.6008 29.4875 39.8473 30.2826 39.5625L37.349 37.0312C37.5654 36.9537 37.7936 36.9141 38.0234 36.9141H38.3867C39.4913 36.9141 40.3867 37.8095 40.3867 38.9141V56ZM35 42.9453V56H38.3867V38.9141H38.0234L30.957 41.4453V44.1992L35 42.9453Z" fill="#E89B05"/>
</svg>
