<svg width="56" height="56" viewBox="0 0 56 56" fill="none" xmlns="http://www.w3.org/2000/svg">
<rect width="56" height="56" rx="20" fill="#FFF2EC"/>
<path d="M21.5004 30.8008H14.3004C12.9749 30.8008 11.9004 31.8753 11.9004 33.2008V40.4008C11.9004 41.7263 12.9749 42.8008 14.3004 42.8008H21.5004C22.8259 42.8008 23.9004 41.7263 23.9004 40.4008V33.2008C23.9004 31.8753 22.8259 30.8008 21.5004 30.8008Z" fill="#FF9292"/>
<path d="M17.9004 24.8C17.4275 24.8014 16.9591 24.7087 16.5224 24.5274C16.0856 24.3461 15.6893 24.0798 15.3564 23.744L14.1564 22.544C13.6536 22.0405 13.3112 21.3994 13.1726 20.7015C13.0339 20.0035 13.1052 19.2802 13.3774 18.6228C13.6496 17.9653 14.1106 17.4033 14.702 17.0077C15.2934 16.6121 15.9888 16.4006 16.7004 16.4C16.9751 16.4016 17.2488 16.4338 17.5164 16.496L20.0124 14H14.3004C13.6645 14.0019 13.0551 14.2554 12.6054 14.705C12.1558 15.1547 11.9023 15.7641 11.9004 16.4V23.6C11.9023 24.2359 12.1558 24.8453 12.6054 25.295C13.0551 25.7446 13.6645 25.9981 14.3004 26H21.5004C22.1363 25.9981 22.7457 25.7446 23.1953 25.295C23.645 24.8453 23.8985 24.2359 23.9004 23.6V20.288L20.4444 23.744C20.1115 24.0798 19.7152 24.3461 19.2784 24.5274C18.8417 24.7087 18.3733 24.8014 17.9004 24.8ZM27.5004 18.8H44.3004C44.6186 18.8 44.9239 18.6736 45.1489 18.4485C45.374 18.2235 45.5004 17.9183 45.5004 17.6C45.5004 17.2817 45.374 16.9765 45.1489 16.7515C44.9239 16.5264 44.6186 16.4 44.3004 16.4H27.5004C27.1821 16.4 26.8769 16.5264 26.6519 16.7515C26.4268 16.9765 26.3004 17.2817 26.3004 17.6C26.3004 17.9183 26.4268 18.2235 26.6519 18.4485C26.8769 18.6736 27.1821 18.8 27.5004 18.8ZM27.5004 23.6H38.3004C38.6186 23.6 38.9239 23.4736 39.1489 23.2485C39.374 23.0235 39.5004 22.7183 39.5004 22.4C39.5004 22.0817 39.374 21.7765 39.1489 21.5515C38.9239 21.3264 38.6186 21.2 38.3004 21.2H27.5004C27.1821 21.2 26.8769 21.3264 26.6519 21.5515C26.4268 21.7765 26.3004 22.0817 26.3004 22.4C26.3004 22.7183 26.4268 23.0235 26.6519 23.2485C26.8769 23.4736 27.1821 23.6 27.5004 23.6ZM44.3004 33.2H27.5004C27.1821 33.2 26.8769 33.3264 26.6519 33.5515C26.4268 33.7765 26.3004 34.0817 26.3004 34.4C26.3004 34.7183 26.4268 35.0235 26.6519 35.2485C26.8769 35.4736 27.1821 35.6 27.5004 35.6H44.3004C44.6186 35.6 44.9239 35.4736 45.1489 35.2485C45.374 35.0235 45.5004 34.7183 45.5004 34.4C45.5004 34.0817 45.374 33.7765 45.1489 33.5515C44.9239 33.3264 44.6186 33.2 44.3004 33.2ZM38.3004 38H27.5004C27.1821 38 26.8769 38.1264 26.6519 38.3515C26.4268 38.5765 26.3004 38.8817 26.3004 39.2C26.3004 39.5183 26.4268 39.8235 26.6519 40.0485C26.8769 40.2736 27.1821 40.4 27.5004 40.4H38.3004C38.6186 40.4 38.9239 40.2736 39.1489 40.0485C39.374 39.8235 39.5004 39.5183 39.5004 39.2C39.5004 38.8817 39.374 38.5765 39.1489 38.3515C38.9239 38.1264 38.6186 38 38.3004 38Z" fill="#FF9292"/>
<path d="M21.8515 15.5519L17.8999 19.5035L17.5483 19.1519C17.322 18.9333 17.0189 18.8123 16.7042 18.8151C16.3896 18.8178 16.0886 18.944 15.8661 19.1665C15.6436 19.389 15.5174 19.69 15.5147 20.0046C15.512 20.3192 15.6329 20.6224 15.8515 20.8487L17.0515 22.0487C17.2765 22.2737 17.5817 22.4 17.8999 22.4C18.2181 22.4 18.5233 22.2737 18.7483 22.0487L23.5483 17.2487C23.6629 17.138 23.7543 17.0056 23.8172 16.8592C23.8801 16.7128 23.9132 16.5553 23.9146 16.396C23.916 16.2366 23.8856 16.0786 23.8253 15.9311C23.765 15.7837 23.6758 15.6497 23.5632 15.537C23.4505 15.4243 23.3165 15.3352 23.169 15.2749C23.0216 15.2146 22.8636 15.1842 22.7042 15.1856C22.5449 15.187 22.3874 15.2201 22.241 15.283C22.0946 15.3459 21.9622 15.4373 21.8515 15.5519Z" fill="#FF9292"/>
</svg>
