<svg width="72" height="77" viewBox="0 0 72 77" fill="none" xmlns="http://www.w3.org/2000/svg">
<path d="M25.5846 -4.02899C25.2231 -4.6314 24.5721 -5 23.8696 -5H4.53436C2.97977 -5 2.01955 -3.30406 2.81937 -1.97101L24.4194 34.029C24.7808 34.6314 25.4318 35 26.1344 35H45.4696C47.0242 35 47.9844 33.3041 47.1846 31.971L25.5846 -4.02899Z" fill="#C52229"/>
<path fill-rule="evenodd" clip-rule="evenodd" d="M23.8704 -7H4.53518C1.426 -7 -0.494453 -3.60811 1.10521 -0.942017L22.7052 35.058C23.4281 36.2628 24.7301 37 26.1352 37H45.4704C48.5796 37 50.5 33.6081 48.9004 30.942L27.3004 -5.05798C26.5775 -6.2628 25.2755 -7 23.8704 -7ZM23.8704 -5C24.5729 -5 25.224 -4.6314 25.5854 -4.02899L47.1854 31.971C47.9852 33.3041 47.025 35 45.4704 35H26.1352C25.4327 35 24.7816 34.6314 24.4202 34.029L2.82019 -1.97101C2.02036 -3.30406 2.98059 -5 4.53518 -5H23.8704Z" fill="#9B0F15"/>
<path d="M46.4194 -4.02899C46.7808 -4.6314 47.4318 -5 48.1344 -5H67.4696C69.0242 -5 69.9844 -3.30406 69.1846 -1.97101L47.5846 34.029C47.2231 34.6314 46.5721 35 45.8696 35H26.5344C24.9798 35 24.0196 33.3041 24.8194 31.971L46.4194 -4.02899Z" fill="#F1333B"/>
<path fill-rule="evenodd" clip-rule="evenodd" d="M48.1336 -7H67.4688C70.578 -7 72.4984 -3.60811 70.8988 -0.942017L49.2988 35.058C48.5759 36.2628 47.2738 37 45.8688 37H26.5336C23.4244 37 21.5039 33.6081 23.1036 30.942L44.7036 -5.05798C45.4265 -6.2628 46.7285 -7 48.1336 -7ZM48.1336 -5C47.431 -5 46.78 -4.6314 46.4186 -4.02899L24.8186 31.971C24.0187 33.3041 24.979 35 26.5336 35H45.8688C46.5713 35 47.2223 34.6314 47.5838 34.029L69.1838 -1.97101C69.9836 -3.30406 69.0234 -5 67.4688 -5H48.1336Z" fill="#9B0F15"/>
<path fill-rule="evenodd" clip-rule="evenodd" d="M48.5021 -3.86462C48.9798 -3.5873 49.1421 -2.97531 48.8648 -2.4977L39.8648 13.0023C39.5875 13.4799 38.9755 13.6423 38.4979 13.365C38.0203 13.0876 37.8579 12.4756 38.1352 11.998L47.1352 -3.50197C47.4125 -3.97958 48.0245 -4.14195 48.5021 -3.86462Z" fill="#FE666D"/>
<path fill-rule="evenodd" clip-rule="evenodd" d="M4.49785 -3.86462C4.02024 -3.5873 3.85788 -2.97531 4.1352 -2.4977L13.1352 13.0023C13.4125 13.4799 14.0245 13.6423 14.5021 13.365C14.9797 13.0876 15.1421 12.4756 14.8648 11.998L5.86478 -3.50197C5.58745 -3.97958 4.97546 -4.14195 4.49785 -3.86462Z" fill="#DF3840"/>
<path d="M63 48C63 62.9117 50.9117 75 36 75C21.0883 75 9 62.9117 9 48C9 33.0883 21.0883 21 36 21C50.9117 21 63 33.0883 63 48Z" fill="#BCCCD2"/>
<path fill-rule="evenodd" clip-rule="evenodd" d="M65 48C65 64.0163 52.0163 77 36 77C19.9837 77 7 64.0163 7 48C7 31.9837 19.9837 19 36 19C52.0163 19 65 31.9837 65 48ZM36 75C50.9117 75 63 62.9117 63 48C63 33.0883 50.9117 21 36 21C21.0883 21 9 33.0883 9 48C9 62.9117 21.0883 75 36 75Z" fill="#81A5B0"/>
<path fill-rule="evenodd" clip-rule="evenodd" d="M11 49C10.4477 49 10 48.5523 10 48C10 33.6406 21.6406 22 36 22C36.5523 22 37 22.4477 37 23C37 23.5523 36.5523 24 36 24C22.7452 24 12 34.7452 12 48C12 48.5523 11.5523 49 11 49Z" fill="#D0DEE3"/>
<path fill-rule="evenodd" clip-rule="evenodd" d="M61 47C61.5523 47 62 47.4477 62 48C62 62.3594 50.3594 74 36 74C35.4477 74 35 73.5523 35 73C35 72.4477 35.4477 72 36 72C49.2548 72 60 61.2548 60 48C60 47.4477 60.4477 47 61 47Z" fill="#A2B9C1"/>
<path d="M56 48C56 59.0457 47.0457 68 36 68C24.9543 68 16 59.0457 16 48C16 36.9543 24.9543 28 36 28C47.0457 28 56 36.9543 56 48Z" fill="#C7D4D8"/>
<path fill-rule="evenodd" clip-rule="evenodd" d="M58 48C58 60.1503 48.1503 70 36 70C23.8497 70 14 60.1503 14 48C14 35.8497 23.8497 26 36 26C48.1503 26 58 35.8497 58 48ZM36 68C47.0457 68 56 59.0457 56 48C56 36.9543 47.0457 28 36 28C24.9543 28 16 36.9543 16 48C16 59.0457 24.9543 68 36 68Z" fill="#81A5B0"/>
<path fill-rule="evenodd" clip-rule="evenodd" d="M36 65C45.3888 65 53 57.3888 53 48C53 47.4477 53.4477 47 54 47C54.5523 47 55 47.4477 55 48C55 58.4934 46.4934 67 36 67C35.4477 67 35 66.5523 35 66C35 65.4477 35.4477 65 36 65Z" fill="#B5C3C8"/>
<path fill-rule="evenodd" clip-rule="evenodd" d="M36 31C26.6112 31 19 38.6112 19 48C19 48.5523 18.5523 49 18 49C17.4477 49 17 48.5523 17 48C17 37.5066 25.5066 29 36 29C36.5523 29 37 29.4477 37 30C37 30.5523 36.5523 31 36 31Z" fill="#D9EAEF"/>
<mask id="path-15-outside-1_98_17699" maskUnits="userSpaceOnUse" x="27" y="36" width="17" height="22" fill="black">
<rect fill="white" x="27" y="36" width="17" height="22"/>
<path d="M41.8555 56H30.1602V53.6797L35.6797 47.7969C36.4375 46.9688 36.9961 46.2461 37.3555 45.6289C37.7227 45.0117 37.9062 44.4258 37.9062 43.8711C37.9062 43.1133 37.7148 42.5195 37.332 42.0898C36.9492 41.6523 36.4023 41.4336 35.6914 41.4336C34.9258 41.4336 34.3203 41.6992 33.875 42.2305C33.4375 42.7539 33.2188 43.4453 33.2188 44.3047H29.8203C29.8203 43.2656 30.0664 42.3164 30.5586 41.457C31.0586 40.5977 31.7617 39.9258 32.668 39.4414C33.5742 38.9492 34.6016 38.7031 35.75 38.7031C37.5078 38.7031 38.8711 39.125 39.8398 39.9688C40.8164 40.8125 41.3047 42.0039 41.3047 43.543C41.3047 44.3867 41.0859 45.2461 40.6484 46.1211C40.2109 46.9961 39.4609 48.0156 38.3984 49.1797L34.5195 53.2695H41.8555V56Z"/>
</mask>
<path d="M41.8555 56H30.1602V53.6797L35.6797 47.7969C36.4375 46.9688 36.9961 46.2461 37.3555 45.6289C37.7227 45.0117 37.9062 44.4258 37.9062 43.8711C37.9062 43.1133 37.7148 42.5195 37.332 42.0898C36.9492 41.6523 36.4023 41.4336 35.6914 41.4336C34.9258 41.4336 34.3203 41.6992 33.875 42.2305C33.4375 42.7539 33.2188 43.4453 33.2188 44.3047H29.8203C29.8203 43.2656 30.0664 42.3164 30.5586 41.457C31.0586 40.5977 31.7617 39.9258 32.668 39.4414C33.5742 38.9492 34.6016 38.7031 35.75 38.7031C37.5078 38.7031 38.8711 39.125 39.8398 39.9688C40.8164 40.8125 41.3047 42.0039 41.3047 43.543C41.3047 44.3867 41.0859 45.2461 40.6484 46.1211C40.2109 46.9961 39.4609 48.0156 38.3984 49.1797L34.5195 53.2695H41.8555V56Z" fill="#D9EAEF"/>
<path d="M41.8555 56V58C42.96 58 43.8555 57.1046 43.8555 56H41.8555ZM30.1602 56H28.1602C28.1602 57.1046 29.0556 58 30.1602 58V56ZM30.1602 53.6797L28.7016 52.3112C28.3538 52.682 28.1602 53.1713 28.1602 53.6797H30.1602ZM35.6797 47.7969L37.1382 49.1653C37.1439 49.1593 37.1495 49.1532 37.1552 49.1471L35.6797 47.7969ZM37.3555 45.6289L35.6367 44.6063C35.6335 44.6117 35.6303 44.6171 35.6271 44.6225L37.3555 45.6289ZM37.332 42.0898L35.8269 43.4069C35.8308 43.4113 35.8347 43.4158 35.8387 43.4203L37.332 42.0898ZM33.875 42.2305L32.3423 40.9457L32.3404 40.9478L33.875 42.2305ZM33.2188 44.3047V46.3047C34.3233 46.3047 35.2188 45.4093 35.2188 44.3047H33.2188ZM29.8203 44.3047H27.8203C27.8203 45.4093 28.7157 46.3047 29.8203 46.3047V44.3047ZM30.5586 41.457L28.8299 40.4512L28.8231 40.4631L30.5586 41.457ZM32.668 39.4414L33.6107 41.2053L33.6225 41.1989L32.668 39.4414ZM39.8398 39.9688L38.5263 41.4769L38.5323 41.4821L39.8398 39.9688ZM38.3984 49.1797L39.8496 50.556C39.8583 50.5467 39.867 50.5374 39.8756 50.528L38.3984 49.1797ZM34.5195 53.2695L33.0684 51.8932C32.5184 52.4732 32.3664 53.3249 32.6821 54.0593C32.9977 54.7936 33.7202 55.2695 34.5195 55.2695V53.2695ZM41.8555 53.2695H43.8555C43.8555 52.165 42.96 51.2695 41.8555 51.2695V53.2695ZM41.8555 54H30.1602V58H41.8555V54ZM32.1602 56V53.6797H28.1602V56H32.1602ZM31.6187 55.0481L37.1382 49.1653L34.2212 46.4284L28.7016 52.3112L31.6187 55.0481ZM37.1552 49.1471C37.9613 48.2661 38.624 47.4249 39.0838 46.6353L35.6271 44.6225C35.3681 45.0673 34.9137 45.6714 34.2042 46.4467L37.1552 49.1471ZM39.0743 46.6515C39.5724 45.8142 39.9062 44.8771 39.9062 43.8711H35.9062C35.9062 43.9745 35.8729 44.2092 35.6367 44.6063L39.0743 46.6515ZM39.9062 43.8711C39.9062 42.7812 39.6265 41.6587 38.8254 40.7594L35.8387 43.4203C35.8299 43.4104 35.8416 43.4165 35.8592 43.4711C35.8789 43.5324 35.9062 43.6574 35.9062 43.8711H39.9062ZM38.8372 40.7728C37.9913 39.8061 36.8393 39.4336 35.6914 39.4336V43.4336C35.8438 43.4336 35.8982 43.4571 35.892 43.4546C35.8887 43.4533 35.8767 43.4479 35.8608 43.4367C35.8448 43.4254 35.8332 43.4141 35.8269 43.4069L38.8372 40.7728ZM35.6914 39.4336C34.4041 39.4336 33.2103 39.9102 32.3423 40.9457L35.4077 43.5153C35.4278 43.4913 35.4414 43.48 35.4475 43.4754C35.4533 43.471 35.4587 43.4678 35.4666 43.4643C35.4791 43.4588 35.5418 43.4336 35.6914 43.4336V39.4336ZM32.3404 40.9478C31.5308 41.9165 31.2188 43.1014 31.2188 44.3047H35.2188C35.2188 43.7892 35.3442 43.5913 35.4096 43.5131L32.3404 40.9478ZM33.2188 42.3047H29.8203V46.3047H33.2188V42.3047ZM31.8203 44.3047C31.8203 43.5965 31.9839 42.9927 32.2941 42.451L28.8231 40.4631C28.1489 41.6401 27.8203 42.9347 27.8203 44.3047H31.8203ZM32.2873 42.4628C32.5942 41.9353 33.0202 41.5209 33.6107 41.2053L31.7252 37.6775C30.5033 38.3307 29.523 39.2601 28.8299 40.4512L32.2873 42.4628ZM33.6225 41.1989C34.2036 40.8833 34.8964 40.7031 35.75 40.7031V36.7031C34.3067 36.7031 32.9448 37.0151 31.7135 37.6839L33.6225 41.1989ZM35.75 40.7031C37.2033 40.7031 38.0368 41.0506 38.5263 41.4769L41.1534 38.4606C39.7054 37.1994 37.8123 36.7031 35.75 36.7031V40.7031ZM38.5323 41.4821C38.984 41.8724 39.3047 42.4621 39.3047 43.543H43.3047C43.3047 41.5457 42.6488 39.7526 41.1474 38.4554L38.5323 41.4821ZM39.3047 43.543C39.3047 44.0302 39.1804 44.5851 38.8596 45.2267L42.4373 47.0155C42.9915 45.9071 43.3047 44.7432 43.3047 43.543H39.3047ZM38.8596 45.2267C38.5391 45.8676 37.9253 46.7313 36.9213 47.8314L39.8756 50.528C40.9965 49.2999 41.8828 48.1246 42.4373 47.0155L38.8596 45.2267ZM36.9473 47.8034L33.0684 51.8932L35.9707 54.6458L39.8496 50.556L36.9473 47.8034ZM34.5195 55.2695H41.8555V51.2695H34.5195V55.2695ZM39.8555 53.2695V56H43.8555V53.2695H39.8555Z" fill="#81A5B0" mask="url(#path-15-outside-1_98_17699)"/>
</svg>
