<svg width="175" height="154" viewBox="0 0 175 154" fill="none" xmlns="http://www.w3.org/2000/svg">
<path d="M85.7113 8.30145L85.7078 8.29986C83.0925 7.12828 80.1944 6.73711 77.3621 7.17339C74.5305 7.60957 71.8851 8.8542 69.7439 10.7577C69.7433 10.7582 69.7428 10.7587 69.7423 10.7591L38.5331 38.494H24.4996C19.8584 38.494 15.4073 40.3377 12.1255 43.6196L16.8824 48.3765L12.1255 43.6196C8.84371 46.9014 7 51.3525 7 55.9937V97.9921C7 102.633 8.84371 107.084 12.1255 110.366C15.4073 113.648 19.8584 115.492 24.4996 115.492H38.5331L69.7439 143.228L69.7458 143.23C71.8885 145.133 74.5352 146.376 77.3677 146.81C80.2001 147.245 83.0978 146.852 85.7122 145.679C88.3267 144.505 90.5466 142.602 92.1051 140.197L86.2309 136.39L92.1051 140.197C93.6636 137.793 94.4943 134.989 94.4974 132.123V132.116V21.8699V21.8672C94.4962 18.9997 93.6664 16.1937 92.1076 13.7869C90.5488 11.3801 88.3276 9.4752 85.7113 8.30145ZM139.763 16.8011L136.92 23.1824L139.763 16.8011C137.939 15.9881 135.969 15.551 133.972 15.5157C131.974 15.4805 129.991 15.8479 128.138 16.596C126.286 17.3441 124.604 18.4576 123.191 19.8701C121.779 21.2826 120.665 22.9651 119.917 24.8173C119.169 26.6694 118.802 28.6533 118.837 30.6505C118.872 32.6478 119.309 34.6175 120.122 36.4421C120.915 38.2223 122.051 39.8289 123.463 41.1707C128.144 45.8687 131.86 51.4391 134.399 57.567C136.951 63.7256 138.264 70.3266 138.264 76.9929C138.264 83.6592 136.951 90.2602 134.399 96.4188C131.86 102.547 128.144 108.117 123.463 112.815C122.051 114.157 120.915 115.763 120.122 117.544C119.309 119.368 118.872 121.338 118.837 123.335C118.802 125.332 119.169 127.316 119.917 129.169C120.665 131.021 121.779 132.703 123.191 134.116C124.604 135.528 126.286 136.642 128.138 137.39C129.991 138.138 131.974 138.505 133.972 138.47C135.969 138.435 137.939 137.998 139.763 137.185L139.763 137.185C141.545 136.391 143.153 135.254 144.496 133.84C151.936 126.381 157.839 117.534 161.872 107.8C165.918 98.0329 168 87.5647 168 76.9929C168 66.4211 165.918 55.9529 161.872 46.186C157.839 36.452 151.936 27.6046 144.496 20.1454C143.153 18.7315 141.545 17.5951 139.763 16.8011Z" fill="#76777A" stroke="#FAFAFA" stroke-width="14"/>
</svg>
