<svg width="56" height="56" viewBox="0 0 56 56" fill="none" xmlns="http://www.w3.org/2000/svg">
<rect width="56" height="56" rx="20" fill="#FFF4E3"/>
<path d="M36.3418 31.1885C36.7854 31.1885 37.0072 31.1885 37.1869 31.287C37.3352 31.3683 37.4733 31.5209 37.5393 31.6765C37.6194 31.8652 37.5992 32.066 37.5589 32.4676C37.35 34.5495 36.6335 36.5556 35.4638 38.3062C34.0561 40.413 32.0552 42.0551 29.7142 43.0248C27.3732 43.9944 24.7973 44.2482 22.3121 43.7538C19.8269 43.2595 17.5441 42.0393 15.7524 40.2476C13.9607 38.4559 12.7405 36.1731 12.2462 33.6879C11.7518 31.2027 12.0056 28.6268 12.9752 26.2858C13.9449 23.9448 15.587 21.9439 17.6938 20.5362C19.4444 19.3665 21.4505 18.65 23.5324 18.4411C23.934 18.4008 24.1348 18.3806 24.3235 18.4607C24.4791 18.5267 24.6317 18.6648 24.713 18.8131C24.8115 18.9928 24.8115 19.2146 24.8115 19.6582V29.9074C24.8115 30.3558 24.8115 30.5801 24.8987 30.7513C24.9755 30.902 25.098 31.0245 25.2487 31.1013C25.4199 31.1885 25.6442 31.1885 26.0926 31.1885H36.3418Z" fill="#FFD9A0"/>
<path d="M31.2172 13.2525C31.2172 12.8089 31.2172 12.5871 31.3157 12.4073C31.3969 12.259 31.5495 12.121 31.7052 12.0549C31.8939 11.9749 32.0947 11.995 32.4963 12.0353C35.4243 12.329 38.177 13.6245 40.2763 15.7237C42.3755 17.823 43.671 20.5757 43.9647 23.5037C44.005 23.9053 44.0251 24.1061 43.9451 24.2948C43.879 24.4505 43.741 24.6031 43.5927 24.6843C43.4129 24.7828 43.1911 24.7828 42.7475 24.7828L32.4983 24.7828C32.0499 24.7828 31.8257 24.7828 31.6544 24.6955C31.5037 24.6188 31.3812 24.4963 31.3045 24.3456C31.2172 24.1743 31.2172 23.9501 31.2172 23.5017V13.2525Z" fill="#FFD9A0"/>
</svg>
