<svg width="24" height="24" viewBox="0 0 24 24" fill="none" xmlns="http://www.w3.org/2000/svg">
<path d="M16.6045 8.22949L17.3955 9.02051L10.8125 15.6035L7.60449 12.3955L8.39551 11.6045L10.8125 14.0215L16.6045 8.22949ZM12.5 3C13.3262 3 14.123 3.10547 14.8906 3.31641C15.6582 3.52734 16.376 3.8291 17.0439 4.22168C17.7119 4.61426 18.3184 5.08301 18.8633 5.62793C19.4082 6.17285 19.877 6.78223 20.2695 7.45605C20.6621 8.12988 20.9639 8.84766 21.1748 9.60938C21.3857 10.3711 21.4941 11.168 21.5 12C21.5 12.8262 21.3945 13.623 21.1836 14.3906C20.9727 15.1582 20.6709 15.876 20.2783 16.5439C19.8857 17.2119 19.417 17.8184 18.8721 18.3633C18.3271 18.9082 17.7178 19.377 17.0439 19.7695C16.3701 20.1621 15.6523 20.4639 14.8906 20.6748C14.1289 20.8857 13.332 20.9941 12.5 21C11.6738 21 10.877 20.8945 10.1094 20.6836C9.3418 20.4727 8.62402 20.1709 7.95605 19.7783C7.28809 19.3857 6.68164 18.917 6.13672 18.3721C5.5918 17.8271 5.12305 17.2178 4.73047 16.5439C4.33789 15.8701 4.03613 15.1553 3.8252 14.3994C3.61426 13.6436 3.50586 12.8438 3.5 12C3.5 11.1738 3.60547 10.377 3.81641 9.60938C4.02734 8.8418 4.3291 8.12402 4.72168 7.45605C5.11426 6.78809 5.58301 6.18164 6.12793 5.63672C6.67285 5.0918 7.28223 4.62305 7.95605 4.23047C8.62988 3.83789 9.34473 3.53613 10.1006 3.3252C10.8564 3.11426 11.6562 3.00586 12.5 3ZM12.5 19.875C13.2207 19.875 13.915 19.7812 14.583 19.5938C15.251 19.4062 15.8779 19.1426 16.4639 18.8027C17.0498 18.4629 17.583 18.0498 18.0635 17.5635C18.5439 17.0771 18.9541 16.5469 19.2939 15.9727C19.6338 15.3984 19.9004 14.7715 20.0938 14.0918C20.2871 13.4121 20.3809 12.7148 20.375 12C20.375 11.2793 20.2812 10.585 20.0938 9.91699C19.9062 9.24902 19.6426 8.62207 19.3027 8.03613C18.9629 7.4502 18.5498 6.91699 18.0635 6.43652C17.5771 5.95605 17.0469 5.5459 16.4727 5.20605C15.8984 4.86621 15.2715 4.59961 14.5918 4.40625C13.9121 4.21289 13.2148 4.11914 12.5 4.125C11.7793 4.125 11.085 4.21875 10.417 4.40625C9.74902 4.59375 9.12207 4.85742 8.53613 5.19727C7.9502 5.53711 7.41699 5.9502 6.93652 6.43652C6.45605 6.92285 6.0459 7.45312 5.70605 8.02734C5.36621 8.60156 5.09961 9.22852 4.90625 9.9082C4.71289 10.5879 4.61914 11.2852 4.625 12C4.625 12.7207 4.71875 13.415 4.90625 14.083C5.09375 14.751 5.35742 15.3779 5.69727 15.9639C6.03711 16.5498 6.4502 17.083 6.93652 17.5635C7.42285 18.0439 7.95312 18.4541 8.52734 18.7939C9.10156 19.1338 9.72852 19.4004 10.4082 19.5938C11.0879 19.7871 11.7852 19.8809 12.5 19.875Z" fill="#5D015B"/>
</svg>
