<svg width="241" height="129" viewBox="0 0 241 129" fill="none" xmlns="http://www.w3.org/2000/svg">
<path d="M83 83.998C83 106.089 65.0914 123.998 43 123.998C20.9086 123.998 3 106.089 3 83.998C3 61.9067 20.9086 43.998 43 43.998C65.0914 43.998 83 61.9067 83 83.998Z" fill="#FFD466"/>
<path fill-rule="evenodd" clip-rule="evenodd" d="M85.9611 83.9981C85.9611 107.726 66.7259 126.961 42.9981 126.961C19.2703 126.961 0.0351562 107.726 0.0351562 83.9981C0.0351562 60.2703 19.2703 41.0352 42.9981 41.0352C66.7259 41.0352 85.9611 60.2703 85.9611 83.9981ZM42.9981 123.998C65.0895 123.998 82.9981 106.09 82.9981 83.9981C82.9981 61.9067 65.0895 43.9981 42.9981 43.9981C20.9067 43.9981 2.99812 61.9067 2.99812 83.9981C2.99812 106.09 20.9067 123.998 42.9981 123.998Z" fill="#D48C00"/>
<path d="M72.6304 83.9968C72.6304 100.361 59.3647 113.626 43.0007 113.626C26.6367 113.626 13.3711 100.361 13.3711 83.9968C13.3711 67.6328 26.6367 54.3672 43.0007 54.3672C59.3647 54.3672 72.6304 67.6328 72.6304 83.9968Z" fill="#FFE768"/>
<path fill-rule="evenodd" clip-rule="evenodd" d="M75.5914 83.9988C75.5914 101.999 60.9992 116.591 42.9988 116.591C24.9985 116.591 10.4062 101.999 10.4062 83.9988C10.4062 65.9985 24.9985 51.4062 42.9988 51.4062C60.9992 51.4062 75.5914 65.9985 75.5914 83.9988ZM42.9988 113.628C59.3628 113.628 72.6285 100.363 72.6285 83.9988C72.6285 67.6348 59.3628 54.3692 42.9988 54.3692C26.6348 54.3692 13.3692 67.6348 13.3692 83.9988C13.3692 100.363 26.6348 113.628 42.9988 113.628Z" fill="#D48C00"/>
<path d="M28.2305 80.5102L37.4608 78.6306L40.2299 73.9315L42.999 69.2324L48.5372 78.6306L57.7675 80.5102L50.3832 88.0287L52.2293 97.4269L42.999 92.7278L33.7687 97.4269L35.6147 88.0287L28.2305 80.5102Z" fill="#FFEB81"/>
<path fill-rule="evenodd" clip-rule="evenodd" d="M37.4585 78.6302L42.9967 69.2321L48.5349 78.6302L57.7653 80.5098L50.381 88.0284L52.2271 97.4265L42.9967 92.7274L33.7664 97.4265L35.6125 88.0284L28.2282 80.5098L37.4585 78.6302ZM32.7048 88.8999L26.3125 82.3914C25.6228 81.6891 25.3726 80.6659 25.6604 79.7246C25.9482 78.7834 26.7279 78.0751 27.6924 77.8787L35.7518 76.2375L40.6833 67.8688C41.1661 67.0497 42.0459 66.5469 42.9967 66.5469C43.9475 66.5469 44.8274 67.0497 45.3101 67.8688L50.2417 76.2375L58.3011 77.8787C59.2655 78.0751 60.0452 78.7834 60.3331 79.7246C60.6209 80.6659 60.3707 81.6891 59.681 82.3914L53.2887 88.8999L54.8619 96.9089C55.0599 97.9171 54.6653 98.9499 53.8455 99.5691C53.0257 100.188 51.9244 100.286 51.0088 99.8194L42.9967 95.7406L34.9846 99.8194C34.069 100.286 32.9678 100.188 32.1479 99.5691C31.3281 98.9499 30.9336 97.9171 31.1316 96.9089L32.7048 88.8999Z" fill="#B47700"/>
<path d="M237.5 83.998C237.5 106.089 219.591 123.998 197.5 123.998C175.409 123.998 157.5 106.089 157.5 83.998C157.5 61.9067 175.409 43.998 197.5 43.998C219.591 43.998 237.5 61.9067 237.5 83.998Z" fill="#FFD466"/>
<path fill-rule="evenodd" clip-rule="evenodd" d="M240.461 83.9981C240.461 107.726 221.226 126.961 197.498 126.961C173.77 126.961 154.535 107.726 154.535 83.9981C154.535 60.2703 173.77 41.0352 197.498 41.0352C221.226 41.0352 240.461 60.2703 240.461 83.9981ZM197.498 123.998C219.59 123.998 237.498 106.09 237.498 83.9981C237.498 61.9067 219.59 43.9981 197.498 43.9981C175.407 43.9981 157.498 61.9067 157.498 83.9981C157.498 106.09 175.407 123.998 197.498 123.998Z" fill="#D48C00"/>
<path d="M227.13 83.9968C227.13 100.361 213.865 113.626 197.501 113.626C181.137 113.626 167.871 100.361 167.871 83.9968C167.871 67.6328 181.137 54.3672 197.501 54.3672C213.865 54.3672 227.13 67.6328 227.13 83.9968Z" fill="#FFE768"/>
<path fill-rule="evenodd" clip-rule="evenodd" d="M230.091 83.9988C230.091 101.999 215.499 116.591 197.499 116.591C179.498 116.591 164.906 101.999 164.906 83.9988C164.906 65.9985 179.498 51.4062 197.499 51.4062C215.499 51.4062 230.091 65.9985 230.091 83.9988ZM197.499 113.628C213.863 113.628 227.128 100.363 227.128 83.9988C227.128 67.6348 213.863 54.3692 197.499 54.3692C181.135 54.3692 167.869 67.6348 167.869 83.9988C167.869 100.363 181.135 113.628 197.499 113.628Z" fill="#D48C00"/>
<path d="M182.73 80.5102L191.961 78.6306L194.73 73.9315L197.499 69.2324L203.037 78.6306L212.268 80.5102L204.883 88.0287L206.729 97.4269L197.499 92.7278L188.269 97.4269L190.115 88.0287L182.73 80.5102Z" fill="#FFEB81"/>
<path fill-rule="evenodd" clip-rule="evenodd" d="M191.959 78.6302L197.497 69.2321L203.035 78.6302L212.265 80.5098L204.881 88.0284L206.727 97.4265L197.497 92.7274L188.266 97.4265L190.112 88.0284L182.728 80.5098L191.959 78.6302ZM187.205 88.8999L180.812 82.3914C180.123 81.6891 179.873 80.6659 180.16 79.7246C180.448 78.7834 181.228 78.0751 182.192 77.8787L190.252 76.2375L195.183 67.8688C195.666 67.0497 196.546 66.5469 197.497 66.5469C198.448 66.5469 199.327 67.0497 199.81 67.8688L204.742 76.2375L212.801 77.8787C213.766 78.0751 214.545 78.7834 214.833 79.7246C215.121 80.6659 214.871 81.6891 214.181 82.3914L207.789 88.8999L209.362 96.9089C209.56 97.9171 209.165 98.9499 208.346 99.5691C207.526 100.188 206.424 100.286 205.509 99.8194L197.497 95.7406L189.485 99.8194C188.569 100.286 187.468 100.188 186.648 99.5691C185.828 98.9499 185.434 97.9171 185.632 96.9089L187.205 88.8999Z" fill="#B47700"/>
<path d="M179.004 64.498C179.004 97.359 152.365 123.998 119.504 123.998C86.643 123.998 60.0039 97.359 60.0039 64.498C60.0039 31.6371 86.643 4.99805 119.504 4.99805C152.365 4.99805 179.004 31.6371 179.004 64.498Z" fill="#FFD466"/>
<path fill-rule="evenodd" clip-rule="evenodd" d="M183.409 64.4972C183.409 99.7923 154.796 128.405 119.501 128.405C84.2061 128.405 55.5938 99.7923 55.5938 64.4972C55.5938 29.2022 84.2061 0.589844 119.501 0.589844C154.796 0.589844 183.409 29.2022 183.409 64.4972ZM119.501 123.997C152.362 123.997 179.001 97.3582 179.001 64.4972C179.001 31.6363 152.362 4.99725 119.501 4.99725C86.6402 4.99725 60.0012 31.6363 60.0012 64.4972C60.0012 97.3582 86.6402 123.997 119.501 123.997Z" fill="#D48C00"/>
<path d="M163.578 64.496C163.578 88.8374 143.845 108.57 119.504 108.57C95.1621 108.57 75.4294 88.8374 75.4294 64.496C75.4294 40.1545 95.1621 20.4219 119.504 20.4219C143.845 20.4219 163.578 40.1545 163.578 64.496Z" fill="#FFE768"/>
<path fill-rule="evenodd" clip-rule="evenodd" d="M167.982 64.4991C167.982 91.2746 146.277 112.981 119.501 112.981C92.7254 112.981 71.0195 91.2746 71.0195 64.4991C71.0195 37.7235 92.7254 16.0176 119.501 16.0176C146.277 16.0176 167.982 37.7235 167.982 64.4991ZM119.501 108.573C143.842 108.573 163.575 88.8405 163.575 64.4991C163.575 40.1576 143.842 20.425 119.501 20.425C95.1596 20.425 75.4269 40.1576 75.4269 64.4991C75.4269 88.8405 95.1596 108.573 119.501 108.573Z" fill="#D48C00"/>
<path d="M97.5273 59.3089L111.257 56.5129L115.376 49.5231L119.496 42.5332L127.734 56.5129L141.464 59.3089L130.48 70.4927L133.226 84.4724L119.496 77.4826L105.765 84.4724L108.511 70.4927L97.5273 59.3089Z" fill="#FFEB81"/>
<path fill-rule="evenodd" clip-rule="evenodd" d="M111.256 56.513L119.494 42.5333L127.732 56.513L141.462 59.309L130.478 70.4928L133.224 84.4725L119.494 77.4826L105.764 84.4725L108.51 70.4928L97.5256 59.309L111.256 56.513ZM104.184 71.7892L94.6759 62.1077C93.65 61.0632 93.2778 59.5411 93.7059 58.141C94.1341 56.7409 95.2939 55.6872 96.7285 55.3951L108.717 52.9538L116.053 40.5054C116.771 39.287 118.079 38.5391 119.494 38.5391C120.908 38.5391 122.217 39.287 122.935 40.5054L130.271 52.9538L142.259 55.3951C143.694 55.6872 144.853 56.7409 145.282 58.141C145.71 59.5411 145.337 61.0632 144.312 62.1077L134.803 71.7892L137.143 83.7026C137.438 85.2023 136.851 86.7385 135.631 87.6596C134.412 88.5808 132.774 88.7254 131.412 88.032L119.494 81.9647L107.576 88.032C106.214 88.7254 104.576 88.5808 103.356 87.6596C102.137 86.7385 101.55 85.2023 101.844 83.7026L104.184 71.7892Z" fill="#B47700"/>
</svg>
