<svg width="40" height="40" viewBox="0 0 56 57" fill="none" xmlns="http://www.w3.org/2000/svg">
<g clip-path="url(#clip0_288_7153)">
<rect y="0.5" width="56" height="56" rx="14" fill="#2A8EFE"/>
<circle cx="7.87262" cy="21.5921" r="41.5381" transform="rotate(-0.403168 7.87262 21.5921)" fill="url(#paint0_linear_288_7153)" stroke="url(#paint1_linear_288_7153)" stroke-width="0.085853"/>
<circle cx="28.0914" cy="51.2738" r="41.5381" transform="rotate(-0.403168 28.0914 51.2738)" fill="url(#paint2_linear_288_7153)" stroke="url(#paint3_radial_288_7153)" stroke-width="0.085853"/>
<path d="M40 28.5C40 35.1274 34.6274 40.5 28 40.5C21.3726 40.5 16 35.1274 16 28.5C16 21.8726 21.3726 16.5 28 16.5M34.6667 28.5C34.6667 32.1819 31.6819 35.1667 28 35.1667C24.3181 35.1667 21.3333 32.1819 21.3333 28.5C21.3333 24.8181 24.3181 21.8333 28 21.8333M31.6772 24.9688L36.9558 25.5232L39.8172 21.5172L36.3835 20.3727L35.239 16.939L31.233 19.8004L31.6772 24.9688ZM31.6772 24.9688L28 28.4999" stroke="white" stroke-width="2" stroke-linecap="round" stroke-linejoin="round"/>
</g>
<defs>
<linearGradient id="paint0_linear_288_7153" x1="7.87262" y1="-19.9889" x2="7.87262" y2="63.1732" gradientUnits="userSpaceOnUse">
<stop stop-color="#5A71C6" stop-opacity="0.56"/>
<stop offset="1" stop-color="white" stop-opacity="0.2"/>
</linearGradient>
<linearGradient id="paint1_linear_288_7153" x1="51.4246" y1="17.4581" x2="-44.9089" y2="38.8014" gradientUnits="userSpaceOnUse">
<stop stop-color="#B5C2FB"/>
<stop offset="1" stop-color="#B5C2FB" stop-opacity="0"/>
</linearGradient>
<linearGradient id="paint2_linear_288_7153" x1="28.0914" y1="9.69271" x2="28.0914" y2="92.8548" gradientUnits="userSpaceOnUse">
<stop stop-color="#A7BAFF" stop-opacity="0.5"/>
<stop offset="1" stop-color="#4C5C99" stop-opacity="0.08"/>
</linearGradient>
<radialGradient id="paint3_radial_288_7153" cx="0" cy="0" r="1" gradientUnits="userSpaceOnUse" gradientTransform="translate(28.0914 51.2738) rotate(89.968) scale(86.1425)">
<stop offset="0.046875" stop-color="#B5C2FB" stop-opacity="0"/>
<stop offset="1" stop-color="#B5C2FB"/>
</radialGradient>
<clipPath id="clip0_288_7153">
<rect y="0.5" width="56" height="56" rx="14" fill="white"/>
</clipPath>
</defs>
</svg>
