<svg width="213" height="50" viewBox="0 0 213 50" fill="none" xmlns="http://www.w3.org/2000/svg">
<path d="M55.1172 46.0102C52.7411 45.1507 50.2224 42.851 49.058 35.7428C47.8937 28.5648 46.872 18.46 44.5671 11.282C43.5691 8.23896 42.3573 5.70694 40.7891 4.17379C45.5889 0.340913 49.557 2.22251 49.6758 2.2922C53.0737 4.9636 56.7568 10.7245 60.0834 22.107C68.2573 50.1683 57.327 46.8233 55.1172 46.0102Z" fill="url(#paint0_linear_121_2248)"/>
<path d="M49.5581 2.50524C48.9403 2.76077 48.3701 3.1789 47.8473 3.71318C46.2553 5.33925 45.186 8.1268 44.4494 11.4951C42.8336 18.7427 42.7386 28.685 42.4059 35.6538C42.0733 42.553 39.911 45.0153 37.7487 46.1071C37.4873 46.2465 37.0121 46.4091 36.4418 46.5717C32.6637 47.5706 23.777 47.2918 30.3589 23.7835C33.4716 12.6566 37.2735 7.08147 40.6476 4.38684C45.4474 0.57719 49.4156 2.45878 49.5581 2.50524Z" fill="url(#paint1_linear_121_2248)"/>
<path d="M47.9648 3.49805C46.3728 5.12412 45.3035 7.91166 44.5669 11.2799C42.9511 18.5276 42.8561 28.4698 42.5234 35.4387C42.1908 42.3379 40.0285 44.8002 37.8662 45.892C37.6048 46.0314 37.1296 46.194 36.5593 46.3566C33.6129 44.4518 31.6644 38.8534 35.7752 24.1491C38.8879 13.0222 42.6898 7.44707 46.0639 4.75244C46.7292 4.24139 47.347 3.82326 47.9648 3.49805Z" fill="url(#paint2_linear_121_2248)"/>
<path d="M31.3543 8.19076C31.3543 8.19076 24.0833 0.641154 19.0697 7.93524C14.056 15.2293 16.3846 24.8231 17.5965 28.7954C17.5965 28.7954 23.2042 42.6402 14.8401 45.5207C11.466 46.6821 8.40079 46.3105 5.95336 44.7309C2.36538 42.4079 0.131803 37.5065 0.25061 31.0951C0.393179 23.801 3.55345 11.1874 10.2304 3.98621C12.9155 1.10575 16.551 -0.148651 20.0677 0.0139556C24.7487 0.223022 29.2633 2.96411 31.188 7.77263C31.2355 7.91201 31.2831 8.05138 31.3543 8.19076Z" fill="url(#paint3_linear_121_2248)"/>
<path d="M9.70766 26.8673C11.2997 37.5994 8.54335 42.5008 5.95336 44.7309C2.36538 42.4079 0.131803 37.5065 0.25061 31.0951C0.393179 23.801 3.55345 11.1874 10.2304 3.98621C12.9155 1.10575 16.551 -0.148651 20.0677 0.0139556C10.7294 3.84683 7.75923 13.8123 9.70766 26.8673Z" fill="url(#paint4_linear_121_2248)"/>
<path d="M82.1515 34.2965C81.4937 34.2965 80.952 34.0506 80.5263 33.5777C80.0813 33.1048 79.9072 32.5374 80.0233 31.9132L82.0741 16.6111C82.1709 15.9112 82.4611 15.3438 82.9448 14.9087C83.4285 14.4737 84.0089 14.2656 84.7055 14.2656C86.0985 14.2656 87.0079 14.852 87.4335 16.0247L90.742 25.3687C90.8968 25.6902 91.071 25.8415 91.2257 25.8415C91.4579 25.8415 91.6127 25.6902 91.7094 25.3687L95.0179 16.0247C95.4436 14.852 96.3336 14.2656 97.7073 14.2656C98.4619 14.2656 99.0617 14.4737 99.5454 14.9087C100.01 15.3438 100.3 15.9112 100.397 16.6111L102.448 31.9132C102.544 32.5563 102.37 33.1048 101.945 33.5777C101.5 34.0506 100.958 34.2965 100.319 34.2965C99.7388 34.2965 99.2358 34.1073 98.8295 33.748C98.4232 33.3886 98.191 32.9157 98.1136 32.3483L97.359 22.3801C97.3203 22.0018 97.2043 21.8127 96.9721 21.8127C96.7399 21.8127 96.5851 21.964 96.4884 22.2855L93.6636 30.0596C93.1992 31.2323 92.3866 31.8186 91.2257 31.8186C90.7614 31.8186 90.3164 31.6673 89.8907 31.3458C89.4457 31.0242 89.0975 30.6081 88.8459 30.0974L86.0018 22.3801C85.905 22.0964 85.7503 21.9451 85.5181 21.9451C85.3246 21.9451 85.1892 22.1342 85.1311 22.5125L84.3572 32.3293C84.3185 32.8968 84.1057 33.3697 83.68 33.729C83.235 34.1263 82.732 34.2965 82.1515 34.2965Z" fill="#1D2023"/>
<path d="M116.338 34.2971C115.719 34.2971 115.197 34.108 114.771 33.7297C114.346 33.3514 114.133 32.8785 114.133 32.2921V16.328C114.133 15.7227 114.346 15.2309 114.771 14.8526C115.197 14.4743 115.719 14.2852 116.338 14.2852C116.996 14.2852 117.519 14.4743 117.925 14.8526C118.331 15.2309 118.544 15.7227 118.544 16.328V32.311C118.544 32.9163 118.331 33.4081 117.925 33.7675C117.519 34.1269 116.996 34.2971 116.338 34.2971Z" fill="#1D2023"/>
<path d="M140.293 34.2957C138.377 34.2957 136.636 33.8417 135.069 32.9527C133.502 32.0637 132.264 30.8532 131.354 29.3211C130.445 27.789 129.98 26.0677 129.98 24.1195C129.98 22.1712 130.425 20.45 131.315 18.9368C132.205 17.4236 133.463 16.232 135.05 15.343C136.636 14.454 138.455 14 140.467 14C141.899 14 143.195 14.1702 144.337 14.5296C145.498 14.889 146.562 15.4375 147.529 16.1941C148.051 16.6103 148.303 17.1399 148.303 17.8208C148.303 18.3693 148.11 18.8233 147.723 19.2016C147.336 19.5799 146.852 19.769 146.31 19.769C145.943 19.769 145.536 19.6177 145.091 19.334C144.375 18.88 143.64 18.5396 142.905 18.2558C142.15 17.991 141.357 17.8586 140.506 17.8586C138.726 17.8586 137.236 18.445 136.094 19.5988C134.934 20.7526 134.353 22.2658 134.353 24.1005C134.353 26.011 134.914 27.5431 136.017 28.678C137.12 29.8318 138.532 30.3992 140.254 30.3992C141.841 30.3992 143.156 30.0966 144.182 29.4724C145.207 28.8482 145.71 28.0538 145.71 27.0702C145.71 26.8243 145.594 26.6919 145.362 26.6919H142.092C141.473 26.6919 140.97 26.5217 140.602 26.1623C140.235 25.8218 140.041 25.3489 140.041 24.7815C140.041 24.233 140.235 23.7979 140.602 23.4385C140.97 23.0981 141.473 22.9089 142.092 22.9089H147.452C148.322 22.9089 148.961 23.117 149.348 23.5142C149.735 23.9114 149.928 24.5734 149.928 25.5002C149.928 28.1672 149.038 30.3046 147.278 31.8935C145.575 33.5012 143.234 34.2957 140.293 34.2957Z" fill="#1D2023"/>
<path d="M170.689 34.2969C168.773 34.2969 167.032 33.8429 165.484 32.935C163.936 32.0271 162.717 30.7976 161.827 29.2466C160.937 27.6956 160.492 25.9744 160.492 24.1018C160.492 22.1535 160.937 20.4323 161.827 18.9191C162.717 17.4059 163.936 16.2143 165.465 15.3442C166.993 14.4741 168.734 14.0391 170.689 14.0391C172.643 14.0391 174.365 14.4741 175.893 15.3442C177.402 16.2143 178.602 17.4059 179.453 18.9191C180.324 20.4323 180.75 22.1535 180.75 24.1018C180.75 26.0122 180.305 27.7334 179.434 29.2845C178.563 30.8355 177.364 32.046 175.854 32.9539C174.326 33.8429 172.623 34.2969 170.689 34.2969ZM170.689 30.495C172.352 30.495 173.707 29.8897 174.771 28.6792C175.835 27.4686 176.358 25.9365 176.358 24.1018C176.358 22.267 175.835 20.7538 174.771 19.5622C173.707 18.3895 172.352 17.8031 170.689 17.8031C169.005 17.8031 167.612 18.3895 166.509 19.5622C165.426 20.7349 164.884 22.2481 164.884 24.1018C164.884 25.9554 165.426 27.4686 166.509 28.6792C167.612 29.8897 169.005 30.495 170.689 30.495Z" fill="#1D2023"/>
<path d="M201.431 34.2969C199.515 34.2969 197.774 33.8429 196.226 32.935C194.678 32.0271 193.459 30.7976 192.569 29.2466C191.679 27.6956 191.234 25.9744 191.234 24.1018C191.234 22.1535 191.679 20.4323 192.569 18.9191C193.459 17.4059 194.678 16.2143 196.207 15.3442C197.735 14.4741 199.477 14.0391 201.431 14.0391C203.385 14.0391 205.107 14.4741 206.635 15.3442C208.144 16.2143 209.344 17.4059 210.195 18.9191C211.066 20.4323 211.492 22.1535 211.492 24.1018C211.492 26.0122 211.047 27.7334 210.176 29.2845C209.305 30.8355 208.106 32.046 206.597 32.9539C205.068 33.8429 203.346 34.2969 201.431 34.2969ZM201.431 30.495C203.095 30.495 204.449 29.8897 205.513 28.6792C206.577 27.4686 207.1 25.9365 207.1 24.1018C207.1 22.267 206.577 20.7538 205.513 19.5622C204.449 18.3895 203.095 17.8031 201.431 17.8031C199.747 17.8031 198.354 18.3895 197.252 19.5622C196.168 20.7349 195.626 22.2481 195.626 24.1018C195.626 25.9554 196.168 27.4686 197.252 28.6792C198.354 29.8897 199.747 30.495 201.431 30.495Z" fill="#1D2023"/>
<defs>
<linearGradient id="paint0_linear_121_2248" x1="47.7857" y1="6.19283" x2="58.1247" y2="43.1602" gradientUnits="userSpaceOnUse">
<stop stop-color="#2A8EFE"/>
<stop offset="1" stop-color="#4BFBF1"/>
</linearGradient>
<linearGradient id="paint1_linear_121_2248" x1="33.5468" y1="49.6187" x2="41.2608" y2="1.89503" gradientUnits="userSpaceOnUse">
<stop stop-color="#2A8EFE"/>
<stop offset="1" stop-color="#4BFBF1"/>
</linearGradient>
<linearGradient id="paint2_linear_121_2248" x1="23.963" y1="5.36391" x2="45.8135" y2="29.9756" gradientUnits="userSpaceOnUse">
<stop stop-color="white"/>
<stop offset="1" stop-color="#4BFBF1" stop-opacity="0"/>
</linearGradient>
<linearGradient id="paint3_linear_121_2248" x1="-1.2768" y1="23.0951" x2="23.5001" y2="23.0951" gradientUnits="userSpaceOnUse">
<stop stop-color="#D996FF"/>
<stop offset="1" stop-color="#670165"/>
</linearGradient>
<linearGradient id="paint4_linear_121_2248" x1="39.7903" y1="11.1748" x2="-4.98776" y2="29.6837" gradientUnits="userSpaceOnUse">
<stop stop-color="white"/>
<stop offset="1" stop-color="#EC8B7E" stop-opacity="0"/>
</linearGradient>
</defs>
</svg>
