<svg width="120" height="96" viewBox="0 0 120 96" fill="none" xmlns="http://www.w3.org/2000/svg">
<g clip-path="url(#clip0_195_11957)">
<path d="M104.983 87.4887C100.457 85.8543 95.6596 81.4813 93.4418 67.9647C91.2241 54.3156 89.2779 35.1008 84.8877 21.4517C82.9868 15.6652 80.6786 10.8504 77.6914 7.93507C86.8339 0.64671 94.3923 4.22463 94.6186 4.35715C101.091 9.43692 108.106 20.3915 114.442 42.0358C130.012 95.3954 109.192 89.0347 104.983 87.4887Z" fill="url(#paint0_linear_195_11957)"/>
<path d="M94.6178 4.35527C93.441 4.84116 92.3548 5.63626 91.3591 6.65221C88.3267 9.74424 86.29 15.0449 84.8869 21.4498C81.8092 35.2314 81.6282 54.137 80.9946 67.3886C80.3609 80.5076 76.2423 85.1898 72.1236 87.2659C71.6258 87.531 70.7206 87.8402 69.6343 88.1494C62.438 90.0488 45.5108 89.5187 58.0478 44.8167C63.9768 23.6584 71.2184 13.0571 77.6453 7.93319C86.7878 0.689003 94.3462 4.26693 94.6178 4.35527Z" fill="url(#paint1_linear_195_11957)"/>
<path d="M91.3594 6.6543C88.327 9.74633 86.2903 15.047 84.8872 21.4519C81.8095 35.2335 81.6285 54.1391 80.9949 67.3907C80.3612 80.5097 76.2426 85.1919 72.1239 87.268C71.6261 87.5331 70.7209 87.8423 69.6346 88.1515C64.0224 84.5294 60.3111 73.8839 68.141 45.9231C74.0701 24.7648 81.3117 14.1635 87.7386 9.03958C89.0059 8.0678 90.1826 7.2727 91.3594 6.6543Z" fill="url(#paint2_linear_195_11957)"/>
<path d="M59.7226 15.575C59.7226 15.575 45.873 1.21918 36.3232 15.0892C26.7733 28.9591 31.2088 47.2021 33.5171 54.7555C33.5171 54.7555 44.1984 81.082 28.2669 86.5593C21.84 88.7679 16.0015 88.0611 11.3397 85.0574C4.50548 80.6403 0.251053 71.32 0.477353 59.1285C0.748912 45.2586 6.76848 21.2732 19.4865 7.57993C24.6009 2.10262 31.5256 -0.282666 38.2241 0.0265371C47.1403 0.424084 55.7397 5.63637 59.4057 14.7799C59.4963 15.045 59.5868 15.31 59.7226 15.575Z" fill="url(#paint3_linear_195_11957)"/>
<path d="M18.4908 51.0893C21.5232 71.4967 16.2731 80.8169 11.3397 85.0574C4.50548 80.6403 0.251053 71.32 0.477353 59.1285C0.748912 45.2586 6.76848 21.2732 19.4865 7.57993C24.6009 2.10262 31.5256 -0.282666 38.2241 0.0265371C20.437 7.3149 14.7795 26.2646 18.4908 51.0893Z" fill="url(#paint4_linear_195_11957)"/>
</g>
<defs>
<linearGradient id="paint0_linear_195_11957" x1="91.0183" y1="11.7744" x2="110.65" y2="82.0865" gradientUnits="userSpaceOnUse">
<stop stop-color="#2A8EFE"/>
<stop offset="1" stop-color="#4BFBF1"/>
</linearGradient>
<linearGradient id="paint1_linear_195_11957" x1="64.1201" y1="93.9434" x2="78.7649" y2="3.1871" gradientUnits="userSpaceOnUse">
<stop stop-color="#2A8EFE"/>
<stop offset="1" stop-color="#4BFBF1"/>
</linearGradient>
<linearGradient id="paint2_linear_195_11957" x1="45.6418" y1="10.2023" x2="87.1828" y2="57.0722" gradientUnits="userSpaceOnUse">
<stop stop-color="white"/>
<stop offset="1" stop-color="#4BFBF1" stop-opacity="0"/>
</linearGradient>
<linearGradient id="paint3_linear_195_11957" x1="-2.432" y1="43.9163" x2="44.7622" y2="43.9163" gradientUnits="userSpaceOnUse">
<stop stop-color="#D996FF"/>
<stop offset="1" stop-color="#670165"/>
</linearGradient>
<linearGradient id="paint4_linear_195_11957" x1="75.7911" y1="21.2493" x2="-9.45828" y2="56.5467" gradientUnits="userSpaceOnUse">
<stop stop-color="white"/>
<stop offset="1" stop-color="#EC8B7E" stop-opacity="0"/>
</linearGradient>
<clipPath id="clip0_195_11957">
<rect width="120" height="95.0769" fill="white"/>
</clipPath>
</defs>
</svg>
